<svg width="220" height="64" viewBox="0 0 220 64" fill="none" xmlns="http://www.w3.org/2000/svg">
  <rect width="220" height="64" rx="18" fill="#08111F"/>
  <rect x="6" y="6" width="52" height="52" rx="14" fill="url(#markGradient)"/>
  <path d="M18 44V20h7.6l6.6 10.8L38.9 20H46v24h-7.4V31.9l-5.1 8h-2.9l-5.1-8V44H18Z" fill="#F8FAFC"/>
  <path d="M47.7 17.2l2.2 4.4 4.9.7-3.6 3.5.9 4.9-4.4-2.3-4.4 2.3.8-4.9-3.5-3.5 4.9-.7 2.2-4.4Z" fill="#F7C948"/>
  <path d="M76 24.2h10.8c5.4 0 8.7 2.9 8.7 7.5 0 4.7-3.3 7.6-8.7 7.6h-4.9V47H76V24.2Zm10.4 10.4c2.1 0 3.3-1 3.3-2.9s-1.2-2.8-3.3-2.8h-4.5v5.7h4.5Z" fill="#F8FAFC"/>
  <path d="M99.1 24.2h17.2v4.7H105v4.2h10v4.5h-10v4.7h11.7V47H99.1V24.2Z" fill="#F8FAFC"/>
  <path d="M121 24.2h5.9l9.2 13.1V24.2h5.8V47h-5.5l-9.6-13.7V47H121V24.2Z" fill="#F8FAFC"/>
  <path d="M146.1 35.6c0-6.9 5.1-11.8 12.2-11.8 4.1 0 7.3 1.5 9.4 4.2l-3.8 3.5c-1.5-1.7-3.2-2.5-5.3-2.5-3.9 0-6.6 2.7-6.6 6.6 0 3.9 2.7 6.6 6.6 6.6 2.1 0 3.8-.8 5.3-2.6l3.8 3.5c-2.1 2.8-5.3 4.3-9.4 4.3-7.1 0-12.2-4.9-12.2-11.8Z" fill="#F8FAFC"/>
  <path d="M170.8 24.2h5.9V47h-5.9V24.2Z" fill="#F8FAFC"/>
  <path d="M181.8 24.2h5.9v17.9h11.1V47h-17V24.2Z" fill="#F8FAFC"/>
  <path d="M76 54h44" stroke="#21C7A8" stroke-width="3" stroke-linecap="round"/>
  <path d="M128 54h20" stroke="#F7C948" stroke-width="3" stroke-linecap="round"/>
  <defs>
    <linearGradient id="markGradient" x1="6" y1="6" x2="58" y2="58" gradientUnits="userSpaceOnUse">
      <stop stop-color="#1F8FFF"/>
      <stop offset="0.48" stop-color="#21C7A8"/>
      <stop offset="1" stop-color="#F7C948"/>
    </linearGradient>
  </defs>
</svg>
